HIERARCHY
ROOT Hips
{
    OFFSET   0.000000   0.000000   0.000000
    CHANNELS 6 Xposition Yposition Zposition Zrotation Xrotation Yrotation
    JOINT Chest
    {
        OFFSET   0.000000   8.007230   0.000000
        CHANNELS 3 Zrotation Xrotation Yrotation
        JOINT Chest2
        {
            OFFSET   0.000000  22.077100   0.000000
            CHANNELS 3 Zrotation Xrotation Yrotation
            JOINT Neck
            {
                OFFSET   0.000000  23.255100   0.000000
                CHANNELS 3 Zrotation Xrotation Yrotation
                JOINT Head
                {
                    OFFSET   0.000000  14.370100   1.956600
                    CHANNELS 3 Zrotation Xrotation Yrotation
                    End Site
                    {
                        OFFSET   0.000000  19.566000   0.000000
                    }
                }
            }
            JOINT LeftCollar
            {
                OFFSET   3.911900  19.017000  -0.467063
                CHANNELS 3 Zrotation Xrotation Yrotation
                JOINT LeftShoulder
                {
                    OFFSET  10.383700   0.000000   0.000000
                    CHANNELS 3 Zrotation Xrotation Yrotation
                    JOINT LeftElbow
                    {
                        OFFSET  26.662100   0.001193   0.000980
                        CHANNELS 3 Zrotation Xrotation Yrotation
                        JOINT LeftWrist
                        {
                            OFFSET  28.869000  -0.000059  -0.000082
                            CHANNELS 3 Zrotation Xrotation Yrotation
                            JOINT LeftFinger0
                            {
                                OFFSET   2.044650  -2.323450   3.252850
                                CHANNELS 3 Zrotation Xrotation Yrotation
                                JOINT LeftFinger01
                                {
                                    OFFSET   3.088130   0.000000   0.000000
                                    CHANNELS 3 Zrotation Xrotation Yrotation
                                    JOINT LeftFinger02
                                    {
                                        OFFSET   2.639460   0.000000   0.000000
                                        CHANNELS 3 Zrotation Xrotation Yrotation
                                        End Site
                                        {
                                            OFFSET   2.582190   0.000000   0.000000
                                        }
                                    }
                                }
                            }
                            JOINT LeftFinger1
                            {
                                OFFSET   8.364480   0.000000   3.252850
                                CHANNELS 3 Zrotation Xrotation Yrotation
                                JOINT LeftFinger11
                                {
                                    OFFSET   4.646930   0.000000   0.000000
                                    CHANNELS 3 Zrotation Xrotation Yrotation
                                    JOINT LeftFinger12
                                    {
                                        OFFSET   2.323470   0.000000   0.000000
                                        CHANNELS 3 Zrotation Xrotation Yrotation
                                        End Site
                                        {
                                            OFFSET   2.273050   0.000000   0.000000
                                        }
                                    }
                                }
                            }
                            JOINT LeftFinger2
                            {
                                OFFSET   8.364490   0.000016   1.078090
                                CHANNELS 3 Zrotation Xrotation Yrotation
                                JOINT LeftFinger21
                                {
                                    OFFSET   5.111610   0.000000   0.000000
                                    CHANNELS 3 Zrotation Xrotation Yrotation
                                    JOINT LeftFinger22
                                    {
                                        OFFSET   2.788150   0.000016   0.000000
                                        CHANNELS 3 Zrotation Xrotation Yrotation
                                        End Site
                                        {
                                            OFFSET   2.727660   0.000000   0.000000
                                        }
                                    }
                                }
                            }
                            JOINT LeftFinger3
                            {
                                OFFSET   7.899780   0.000015  -1.078090
                                CHANNELS 3 Zrotation Xrotation Yrotation
                                JOINT LeftFinger31
                                {
                                    OFFSET   4.646930   0.000000   0.000000
                                    CHANNELS 3 Zrotation Xrotation Yrotation
                                    JOINT LeftFinger32
                                    {
                                        OFFSET   2.323470   0.000000   0.000000
                                        CHANNELS 3 Zrotation Xrotation Yrotation
                                        End Site
                                        {
                                            OFFSET   2.273050   0.000000   0.000000
                                        }
                                    }
                                }
                            }
                            JOINT LeftFinger4
                            {
                                OFFSET   7.435090   0.000000  -3.252850
                                CHANNELS 3 Zrotation Xrotation Yrotation
                                JOINT LeftFinger41
                                {
                                    OFFSET   3.717550   0.000000   0.000000
                                    CHANNELS 3 Zrotation Xrotation Yrotation
                                    JOINT LeftFinger42
                                    {
                                        OFFSET   1.858770   0.000000   0.000000
                                        CHANNELS 3 Zrotation Xrotation Yrotation
                                        End Site
                                        {
                                            OFFSET   1.818440   0.000000   0.000000
                                        }
                                    }
                                }
                            }
                        }
                    }
                }
            }
            JOINT RightCollar
            {
                OFFSET  -3.911910  19.017000  -0.467062
                CHANNELS 3 Zrotation Xrotation Yrotation
                JOINT RightShoulder
                {
                    OFFSET -10.383700   0.000014   0.000000
                    CHANNELS 3 Zrotation Xrotation Yrotation
                    JOINT RightElbow
                    {
                        OFFSET -26.662100   0.001225   0.001091
                        CHANNELS 3 Zrotation Xrotation Yrotation
                        JOINT RightWrist
                        {
                            OFFSET -28.869000  -0.000020  -0.000085
                            CHANNELS 3 Zrotation Xrotation Yrotation
                            JOINT RightFinger0
                            {
                                OFFSET  -2.044650  -2.323490   3.252850
                                CHANNELS 3 Zrotation Xrotation Yrotation
                                JOINT RightFinger01
                                {
                                    OFFSET  -3.088130   0.000000   0.000000
                                    CHANNELS 3 Zrotation Xrotation Yrotation
                                    JOINT RightFinger02
                                    {
                                        OFFSET  -2.639460   0.000000   0.000000
                                        CHANNELS 3 Zrotation Xrotation Yrotation
                                        End Site
                                        {
                                            OFFSET  -2.582190   0.000000   0.000000
                                        }
                                    }
                                }
                            }
                            JOINT RightFinger1
                            {
                                OFFSET  -8.364480   0.000000   3.252850
                                CHANNELS 3 Zrotation Xrotation Yrotation
                                JOINT RightFinger11
                                {
                                    OFFSET  -4.646930   0.000000   0.000000
                                    CHANNELS 3 Zrotation Xrotation Yrotation
                                    JOINT RightFinger12
                                    {
                                        OFFSET  -2.323470   0.000000   0.000000
                                        CHANNELS 3 Zrotation Xrotation Yrotation
                                        End Site
                                        {
                                            OFFSET  -2.273050   0.000000   0.000000
                                        }
                                    }
                                }
                            }
                            JOINT RightFinger2
                            {
                                OFFSET  -8.364480   0.000000   1.078090
                                CHANNELS 3 Zrotation Xrotation Yrotation
                                JOINT RightFinger21
                                {
                                    OFFSET  -5.111620   0.000000   0.000000
                                    CHANNELS 3 Zrotation Xrotation Yrotation
                                    JOINT RightFinger22
                                    {
                                        OFFSET  -2.788160   0.000000   0.000000
                                        CHANNELS 3 Zrotation Xrotation Yrotation
                                        End Site
                                        {
                                            OFFSET  -2.727660   0.000000   0.000000
                                        }
                                    }
                                }
                            }
                            JOINT RightFinger3
                            {
                                OFFSET  -7.899780   0.000000  -1.078090
                                CHANNELS 3 Zrotation Xrotation Yrotation
                                JOINT RightFinger31
                                {
                                    OFFSET  -4.646930   0.000000   0.000000
                                    CHANNELS 3 Zrotation Xrotation Yrotation
                                    JOINT RightFinger32
                                    {
                                        OFFSET  -2.323470   0.000000   0.000000
                                        CHANNELS 3 Zrotation Xrotation Yrotation
                                        End Site
                                        {
                                            OFFSET  -2.273050   0.000000   0.000000
                                        }
                                    }
                                }
                            }
                            JOINT RightFinger4
                            {
                                OFFSET  -7.435090   0.000000  -3.252850
                                CHANNELS 3 Zrotation Xrotation Yrotation
                                JOINT RightFinger41
                                {
                                    OFFSET  -3.717550   0.000000   0.000000
                                    CHANNELS 3 Zrotation Xrotation Yrotation
                                    JOINT RightFinger42
                                    {
                                        OFFSET  -1.858760   0.000000   0.000000
                                        CHANNELS 3 Zrotation Xrotation Yrotation
                                        End Site
                                        {
                                            OFFSET  -1.818440   0.000000   0.000000
                                        }
                                    }
                                }
                            }
                        }
                    }
                }
            }
        }
    }
    JOINT LeftHip
    {
        OFFSET   9.783030   0.000000   0.000000
        CHANNELS 3 Zrotation Xrotation Yrotation
        JOINT LeftKnee
        {
            OFFSET   0.000063 -41.789100   0.000608
            CHANNELS 3 Zrotation Xrotation Yrotation
            JOINT LeftAnkle
            {
                OFFSET   0.000048 -41.133200  -0.000184
                CHANNELS 3 Zrotation Xrotation Yrotation
                JOINT LeftToe
                {
                    OFFSET   0.000000  -6.358960  14.674500
                    CHANNELS 3 Zrotation Xrotation Yrotation
                    End Site
                    {
                        OFFSET   0.000000   0.000000   3.913200
                    }
                }
            }
        }
    }
    JOINT RightHip
    {
        OFFSET  -9.783030   0.000000   0.000000
        CHANNELS 3 Zrotation Xrotation Yrotation
        JOINT RightKnee
        {
            OFFSET   0.000071 -41.789100   0.001239
            CHANNELS 3 Zrotation Xrotation Yrotation
            JOINT RightAnkle
            {
                OFFSET   0.000037 -41.133200  -0.000166
                CHANNELS 3 Zrotation Xrotation Yrotation
                JOINT RightToe
                {
                    OFFSET   0.000000  -6.358960  14.674500
                    CHANNELS 3 Zrotation Xrotation Yrotation
                    End Site
                    {
                        OFFSET   0.000000   0.000000   3.913200
                    }
                }
            }
        }
    }
}
MOTION
Frames: 5
Frame Time:   0.016667
  0.799021  89.487700  -0.515073  -6.063370 -10.313800 -13.349700   1.655720   7.539130   0.341246   3.309160  15.085200   0.466835   0.624575   0.106062   0.000231   1.026660   0.214742   5.274010  -7.099920  -1.744330  -0.587460 -69.628000  24.208000  -2.375540  -4.277250  -8.352340 -17.361900  15.265300 -15.274500   5.134060  44.546200  35.225900 -67.067700 -25.171000   0.006382   0.003074  -7.585540   0.004555   0.004296 -27.473600   5.042720  -9.594620 -22.825400   0.006452   0.002286 -15.977700   0.006496   0.003790 -28.087000   0.261209  -0.489459 -32.591000   0.012275   0.000322 -21.705600   0.007908   0.000336 -27.823200   0.258952  -0.490649 -30.922300   0.001527   0.005208 -20.594300   0.000545   0.003405 -29.474900   0.273018  -0.482954 -44.213900  -0.000162  -0.002207 -29.446400  -0.001729   0.009967  10.218400   0.012585  11.076100  24.661500  13.121500  64.659500 -43.040800  -5.592550  58.724100 -59.994800  32.027900  30.686600 -54.533700  45.829000  91.539600 -10.992900  -0.093041  -0.015519 -10.496500  -0.054280   0.049884   1.702280   1.534140  30.205300   1.160690   0.055507  -0.005615   0.343346   0.038392  -0.004841   3.175190   1.053610  15.895800   3.321370   0.043746  -0.009353   2.212020   0.028870  -0.007470  -1.325130   0.002531   3.316640   0.350943   0.018566  -0.001164   0.062145   0.012395  -0.001671   2.063720  -0.095253  -7.832490   3.101830   0.071245  -0.010531   2.065820   0.047414  -0.008806   2.012670  15.816400   4.869990   0.975911   0.160583   7.461530  -0.578473  -5.280560   4.534830  -0.000000   0.000000   0.000000   3.898960  11.571600  -3.993430  -1.215090   2.839410   0.888744  -1.026570  -3.735040   6.128190  -0.000000   0.000000   0.000000
  0.783997  89.486400  -0.488094  -6.045560 -10.313400 -13.419100   1.640980   7.481130   0.297147   3.285060  14.967700   0.380825   0.634771   0.164113   0.000300   1.042760   0.332350   5.403660  -7.075610  -1.572240  -0.462559 -69.658800  24.186100  -2.371540  -4.261240  -8.315270 -17.268100  15.343500 -15.288000   5.201620  44.462400  35.134400 -66.906800 -25.207700   0.006635   0.003221  -7.603880   0.004712   0.004244 -27.475100   5.014070  -9.540780 -22.822200   0.006592   0.002281 -15.975500   0.006546   0.003856 -28.085400   0.237934  -0.445909 -32.579100   0.012590   0.000391 -21.697700   0.008129   0.000356 -27.820900   0.235866  -0.446994 -30.908500   0.001404   0.005411 -20.585100   0.000423   0.003499 -29.460100   0.248531  -0.440081 -44.191500  -0.000154  -0.002223 -29.431500  -0.001653   0.010192  10.306400   0.134670  11.250800  19.844300  12.952300  65.075400 -43.712100  -4.637710  58.114000 -62.469100  30.753100  37.641400 -54.008700  46.195100  92.203500  -9.850400  -0.087012  -0.015105  -9.925200  -0.051688   0.046313  -0.042191   0.381913  31.968800  -0.000008   0.028420   0.015671  -0.834037   0.019960   0.011741   2.392700   0.896512  16.612200   2.499510   0.024956   0.000769   1.664670   0.016752   0.000090  -2.056980   0.010000   4.154330   0.000000  -0.003437   0.002880  -0.305034  -0.002258   0.000521   0.911440   0.095940  -7.874260   1.360460   0.043039   0.000219   0.906073   0.029087   0.000079   1.980230  15.852600   4.870500   0.971120   0.133743   7.494870  -0.568506  -5.274510   4.576480  -0.000000   0.000000  -0.000000   3.869420  11.592500  -3.936720  -1.211220   2.819140   0.872104  -1.023440  -3.733960   6.163890   0.000000   0.000000   0.000000
  0.765931  89.484800  -0.473504  -6.045410 -10.318900 -13.487400   1.640590   7.455950   0.300890   3.284300  14.917300   0.388587   0.631662   0.208465   0.000381   1.036820   0.422569   5.393600  -7.082440  -1.521720  -0.420726 -69.678600  24.254800  -2.422880  -4.258050  -8.418550 -17.124500  15.378300 -15.294000   5.274500  44.375300  35.021500 -66.836900 -25.187200   0.006892   0.003340  -7.593640   0.004874   0.004205 -27.503900   5.033890  -9.567800 -22.846500   0.006738   0.002283 -15.992500   0.006590   0.003924 -28.092600   0.252480  -0.473027 -32.632700   0.012905   0.000432 -21.733300   0.008349   0.000371 -27.829800   0.250298  -0.474174 -30.959600   0.001292   0.005623 -20.619200   0.000300   0.003599 -29.492000   0.263960  -0.466720 -44.239300  -0.000145  -0.002237 -29.463300  -0.001583   0.010413  10.358300   0.127196  11.397900  16.363200  12.700300  65.144900 -44.350800  -3.584980  58.077000 -65.331200  29.136200  43.869400 -50.501800  44.773500  89.520000  -4.886850   0.018832  -0.062898  -7.443430   0.005279  -0.005967   0.158818   0.148852  30.296600   0.079954   0.037612   0.014949  -0.441879   0.026445   0.011031   2.770900   0.765647  13.653000   2.840180   0.032384  -0.000286   1.891560   0.021602  -0.001071  -1.501240   0.022926   0.498766   0.003179   0.009441   0.001588  -0.262343   0.006323   0.000256   1.266450  -0.079784 -10.993500   1.910080   0.063002  -0.005752   1.272120   0.042287  -0.005341   1.977020  15.881500   4.874170   0.954162   0.133921   7.519260  -0.559181  -5.282960   4.616800  -0.000000   0.000000   0.000000   3.870890  11.606400  -3.873400  -1.224990   2.819300   0.861402  -1.021560  -3.739960   6.173490   0.000000   0.000000   0.000000
  0.743533  89.482800  -0.469246  -6.049100 -10.327400 -13.524400   1.639120   7.441450   0.312561   3.278990  14.888800   0.413502   0.628552   0.244240   0.000463   1.032660   0.495370   5.370620  -7.090130  -1.509010  -0.398715 -69.665600  24.375200  -2.510850  -4.255450  -8.592150 -16.985900  15.392800 -15.298600   5.319370  44.317500  34.906000 -66.822100 -25.132300   0.007161   0.003453  -7.566170   0.005044   0.004172 -27.525100   5.076280  -9.636440 -22.870700   0.006887   0.002288 -16.009500   0.006635   0.003996 -28.101200   0.288706  -0.540710 -32.691800   0.013219   0.000571 -21.772700   0.008571   0.000420 -27.838200   0.286221  -0.542021 -31.010800   0.001188   0.005841 -20.653200   0.000184   0.003704 -29.523500   0.302074  -0.533360 -44.287100  -0.000137  -0.002250 -29.495200  -0.001517   0.010630  10.373800   0.119739  11.523100  14.257500  12.369800  65.022400 -44.811200  -2.653100  58.329200 -66.969800  28.088700  47.116000 -45.117900  41.776100  84.886000   2.471350   0.119507  -0.110690  -3.764360   0.060024  -0.055186   0.533998   0.118792  26.477700   0.639697   0.055074   0.009893   0.447784   0.038521   0.006061   3.653010   0.549789   8.195410   3.679950   0.047812  -0.004782   2.450850   0.031541  -0.005103  -0.371660   0.029098  -5.496950   0.025433   0.034708  -0.001907   0.016959   0.023082  -0.001599   2.409520  -0.694370 -16.330900   3.714070   0.108371  -0.024094   2.473580   0.070572  -0.022383   1.975970  15.897300   4.877520   0.942109   0.135220   7.529790  -0.553356  -5.297970   4.638380  -0.000000   0.000000  -0.000000   3.886480  11.616800  -3.834130  -1.245410   2.820390   0.856165  -1.020100  -3.749820   6.174930  -0.000000   0.000000  -0.000000
  0.713418  89.480400  -0.470476  -6.058530 -10.333400 -13.522300   1.625370   7.412410   0.330201   3.248110  14.830300   0.452162   0.657088   0.279840   0.000538   1.079580   0.567293   5.354640  -7.071260  -1.497300  -0.316911 -69.626800  24.509000  -2.588640  -4.246000  -8.778440 -16.910500  15.383900 -15.301400   5.306530  44.332100  34.846900 -66.837000 -25.032700   0.007448   0.003576  -7.516410   0.005224   0.004130 -27.504200   5.135000  -9.753320 -22.861800   0.007038   0.002293 -16.003200   0.006684   0.004035 -28.101200   0.349231  -0.654076 -32.695500   0.013531   0.002831 -21.775200   0.008798   0.001840 -27.836700   0.346203  -0.655679 -31.005300   0.001064   0.006062 -20.649500   0.000093   0.003813 -29.516000   0.365229  -0.645247 -44.276800  -0.000130  -0.002261 -29.488300  -0.001452   0.010844  10.320300   0.195221  11.641400  13.879200  12.075800  64.658100 -44.764000  -1.854910  59.190100 -67.718200  27.978800  46.843900 -41.743400  37.448200  80.486600  10.172800   0.117713  -0.107650   0.086366   0.058704  -0.054351   2.520290   0.787881  20.772400   2.443530   0.078966  -0.011986   1.791290   0.054399  -0.011714   5.037670   0.150539   2.355430   5.035510   0.072382  -0.017485   3.353660   0.047049  -0.015426   0.977420  -0.158420 -11.202000   0.902522   0.070899  -0.008201   0.713040   0.047101  -0.006905   4.576260  -1.879000 -21.399000   7.286320   0.190026  -0.062895   4.852690   0.117714  -0.059600   1.990270  15.890100   4.871420   0.939277   0.168138   7.529590  -0.557814  -5.314880   4.638360  -0.000000   0.000000   0.000000   3.914180  11.623000  -3.847030  -1.257700   2.828300   0.875673  -1.021030  -3.757520   6.172300  -0.000000   0.000000   0.000000
